solid OpenSCAD_Model
  facet normal -1 0 0
    outer loop
      vertex 0 0 0
      vertex 0 20 40
      vertex 0 20 0
    endloop
  endfacet
  facet normal -1 -0 0
    outer loop
      vertex 0 20 40
      vertex 0 0 0
      vertex 0 0 40
    endloop
  endfacet
  facet normal -0 0 1
    outer loop
      vertex 0 20 40
      vertex 60 0 40
      vertex 60 20 40
    endloop
  endfacet
  facet normal 0 0 1
    outer loop
      vertex 60 0 40
      vertex 0 20 40
      vertex 0 0 40
    endloop
  endfacet
  facet normal 1 -0 0
    outer loop
      vertex 60 0 40
      vertex 60 20 0
      vertex 60 20 40
    endloop
  endfacet
  facet normal 1 0 0
    outer loop
      vertex 60 20 0
      vertex 60 0 40
      vertex 60 0 0
    endloop
  endfacet
  facet normal 0 0 -1
    outer loop
      vertex 0 0 0
      vertex 10 20 0
      vertex 10 0 0
    endloop
  endfacet
  facet normal -0 0 -1
    outer loop
      vertex 10 20 0
      vertex 0 0 0
      vertex 0 20 0
    endloop
  endfacet
  facet normal 0 0 -1
    outer loop
      vertex 50 0 0
      vertex 60 20 0
      vertex 60 0 0
    endloop
  endfacet
  facet normal -0 0 -1
    outer loop
      vertex 60 20 0
      vertex 50 0 0
      vertex 50 20 0
    endloop
  endfacet
  facet normal 0 -1 0
    outer loop
      vertex 0 0 40
      vertex 30 0 30
      vertex 60 0 40
    endloop
  endfacet
  facet normal 0 -1 0
    outer loop
      vertex 0 0 40
      vertex 28.7442 0 29.9605
      vertex 30 0 30
    endloop
  endfacet
  facet normal 0 -1 0
    outer loop
      vertex 0 0 40
      vertex 27.4933 0 29.8423
      vertex 28.7442 0 29.9605
    endloop
  endfacet
  facet normal 0 -1 0
    outer loop
      vertex 0 0 40
      vertex 26.2524 0 29.6457
      vertex 27.4933 0 29.8423
    endloop
  endfacet
  facet normal 0 -1 0
    outer loop
      vertex 0 0 40
      vertex 25.0262 0 29.3717
      vertex 26.2524 0 29.6457
    endloop
  endfacet
  facet normal 0 -1 0
    outer loop
      vertex 0 0 40
      vertex 23.8197 0 29.0211
      vertex 25.0262 0 29.3717
    endloop
  endfacet
  facet normal 0 -1 0
    outer loop
      vertex 0 0 40
      vertex 22.6375 0 28.5955
      vertex 23.8197 0 29.0211
    endloop
  endfacet
  facet normal 0 -1 0
    outer loop
      vertex 0 0 40
      vertex 21.4844 0 28.0965
      vertex 22.6375 0 28.5955
    endloop
  endfacet
  facet normal 0 -1 0
    outer loop
      vertex 0 0 40
      vertex 20.3649 0 27.5261
      vertex 21.4844 0 28.0965
    endloop
  endfacet
  facet normal 0 -1 0
    outer loop
      vertex 0 0 40
      vertex 19.2835 0 26.8866
      vertex 20.3649 0 27.5261
    endloop
  endfacet
  facet normal 0 -1 0
    outer loop
      vertex 0 0 40
      vertex 18.2443 0 26.1803
      vertex 19.2835 0 26.8866
    endloop
  endfacet
  facet normal 0 -1 0
    outer loop
      vertex 0 0 40
      vertex 17.2515 0 25.4103
      vertex 18.2443 0 26.1803
    endloop
  endfacet
  facet normal 0 -1 0
    outer loop
      vertex 0 0 40
      vertex 16.3091 0 24.5794
      vertex 17.2515 0 25.4103
    endloop
  endfacet
  facet normal 0 -1 0
    outer loop
      vertex 0 0 40
      vertex 15.4206 0 23.6909
      vertex 16.3091 0 24.5794
    endloop
  endfacet
  facet normal 0 -1 0
    outer loop
      vertex 0 0 40
      vertex 14.5897 0 22.7485
      vertex 15.4206 0 23.6909
    endloop
  endfacet
  facet normal 0 -1 0
    outer loop
      vertex 0 0 40
      vertex 13.8197 0 21.7557
      vertex 14.5897 0 22.7485
    endloop
  endfacet
  facet normal 0 -1 0
    outer loop
      vertex 0 0 40
      vertex 13.1134 0 20.7165
      vertex 13.8197 0 21.7557
    endloop
  endfacet
  facet normal 0 -1 0
    outer loop
      vertex 0 0 40
      vertex 12.4739 0 19.6351
      vertex 13.1134 0 20.7165
    endloop
  endfacet
  facet normal 0 -1 0
    outer loop
      vertex 0 0 40
      vertex 11.9035 0 18.5156
      vertex 12.4739 0 19.6351
    endloop
  endfacet
  facet normal 0 -1 0
    outer loop
      vertex 0 0 40
      vertex 11.4045 0 17.3625
      vertex 11.9035 0 18.5156
    endloop
  endfacet
  facet normal 0 -1 0
    outer loop
      vertex 0 0 40
      vertex 10.9789 0 16.1803
      vertex 11.4045 0 17.3625
    endloop
  endfacet
  facet normal 0 -1 0
    outer loop
      vertex 0 0 40
      vertex 10.6283 0 14.9738
      vertex 10.9789 0 16.1803
    endloop
  endfacet
  facet normal 0 -1 0
    outer loop
      vertex 0 0 0
      vertex 10.6283 0 14.9738
      vertex 0 0 40
    endloop
  endfacet
  facet normal 0 -1 0
    outer loop
      vertex 10.6283 0 14.9738
      vertex 0 0 0
      vertex 10.3543 0 13.7476
    endloop
  endfacet
  facet normal 0 -1 0
    outer loop
      vertex 10.3543 0 13.7476
      vertex 0 0 0
      vertex 10.1577 0 12.5067
    endloop
  endfacet
  facet normal 0 -1 0
    outer loop
      vertex 10.1577 0 12.5067
      vertex 0 0 0
      vertex 10.0395 0 11.2558
    endloop
  endfacet
  facet normal 0 -1 0
    outer loop
      vertex 10.0395 0 11.2558
      vertex 0 0 0
      vertex 10 0 10
    endloop
  endfacet
  facet normal 0 -1 -0
    outer loop
      vertex 10 0 10
      vertex 0 0 0
      vertex 10 0 0
    endloop
  endfacet
  facet normal 0 -1 0
    outer loop
      vertex 31.2558 0 29.9605
      vertex 60 0 40
      vertex 30 0 30
    endloop
  endfacet
  facet normal 0 -1 0
    outer loop
      vertex 32.5067 0 29.8423
      vertex 60 0 40
      vertex 31.2558 0 29.9605
    endloop
  endfacet
  facet normal 0 -1 0
    outer loop
      vertex 33.7476 0 29.6457
      vertex 60 0 40
      vertex 32.5067 0 29.8423
    endloop
  endfacet
  facet normal 0 -1 0
    outer loop
      vertex 34.9738 0 29.3717
      vertex 60 0 40
      vertex 33.7476 0 29.6457
    endloop
  endfacet
  facet normal 0 -1 0
    outer loop
      vertex 36.1803 0 29.0211
      vertex 60 0 40
      vertex 34.9738 0 29.3717
    endloop
  endfacet
  facet normal 0 -1 0
    outer loop
      vertex 37.3625 0 28.5955
      vertex 60 0 40
      vertex 36.1803 0 29.0211
    endloop
  endfacet
  facet normal 0 -1 0
    outer loop
      vertex 38.5156 0 28.0965
      vertex 60 0 40
      vertex 37.3625 0 28.5955
    endloop
  endfacet
  facet normal 0 -1 0
    outer loop
      vertex 39.6351 0 27.5261
      vertex 60 0 40
      vertex 38.5156 0 28.0965
    endloop
  endfacet
  facet normal 0 -1 0
    outer loop
      vertex 40.7165 0 26.8866
      vertex 60 0 40
      vertex 39.6351 0 27.5261
    endloop
  endfacet
  facet normal 0 -1 0
    outer loop
      vertex 41.7557 0 26.1803
      vertex 60 0 40
      vertex 40.7165 0 26.8866
    endloop
  endfacet
  facet normal 0 -1 0
    outer loop
      vertex 42.7485 0 25.4103
      vertex 60 0 40
      vertex 41.7557 0 26.1803
    endloop
  endfacet
  facet normal 0 -1 0
    outer loop
      vertex 43.6909 0 24.5794
      vertex 60 0 40
      vertex 42.7485 0 25.4103
    endloop
  endfacet
  facet normal 0 -1 0
    outer loop
      vertex 44.5794 0 23.6909
      vertex 60 0 40
      vertex 43.6909 0 24.5794
    endloop
  endfacet
  facet normal 0 -1 0
    outer loop
      vertex 45.4103 0 22.7485
      vertex 60 0 40
      vertex 44.5794 0 23.6909
    endloop
  endfacet
  facet normal 0 -1 0
    outer loop
      vertex 46.1803 0 21.7557
      vertex 60 0 40
      vertex 45.4103 0 22.7485
    endloop
  endfacet
  facet normal 0 -1 0
    outer loop
      vertex 46.8866 0 20.7165
      vertex 60 0 40
      vertex 46.1803 0 21.7557
    endloop
  endfacet
  facet normal 0 -1 0
    outer loop
      vertex 47.5261 0 19.6351
      vertex 60 0 40
      vertex 46.8866 0 20.7165
    endloop
  endfacet
  facet normal 0 -1 0
    outer loop
      vertex 48.0965 0 18.5156
      vertex 60 0 40
      vertex 47.5261 0 19.6351
    endloop
  endfacet
  facet normal 0 -1 0
    outer loop
      vertex 48.5955 0 17.3625
      vertex 60 0 40
      vertex 48.0965 0 18.5156
    endloop
  endfacet
  facet normal 0 -1 0
    outer loop
      vertex 49.0211 0 16.1803
      vertex 60 0 40
      vertex 48.5955 0 17.3625
    endloop
  endfacet
  facet normal 0 -1 0
    outer loop
      vertex 49.3717 0 14.9738
      vertex 60 0 40
      vertex 49.0211 0 16.1803
    endloop
  endfacet
  facet normal 0 -1 0
    outer loop
      vertex 60 0 0
      vertex 49.3717 0 14.9738
      vertex 49.6457 0 13.7476
    endloop
  endfacet
  facet normal 0 -1 0
    outer loop
      vertex 60 0 0
      vertex 49.6457 0 13.7476
      vertex 49.8423 0 12.5067
    endloop
  endfacet
  facet normal 0 -1 0
    outer loop
      vertex 60 0 0
      vertex 49.8423 0 12.5067
      vertex 49.9605 0 11.2558
    endloop
  endfacet
  facet normal 0 -1 0
    outer loop
      vertex 60 0 0
      vertex 49.9605 0 11.2558
      vertex 50 0 10
    endloop
  endfacet
  facet normal 0 -1 0
    outer loop
      vertex 60 0 0
      vertex 50 0 10
      vertex 50 0 0
    endloop
  endfacet
  facet normal 0 -1 0
    outer loop
      vertex 49.3717 0 14.9738
      vertex 60 0 0
      vertex 60 0 40
    endloop
  endfacet
  facet normal 0 1 0
    outer loop
      vertex 60 20 40
      vertex 30 20 30
      vertex 0 20 40
    endloop
  endfacet
  facet normal 0 1 0
    outer loop
      vertex 60 20 40
      vertex 31.2558 20 29.9605
      vertex 30 20 30
    endloop
  endfacet
  facet normal 0 1 0
    outer loop
      vertex 60 20 40
      vertex 32.5067 20 29.8423
      vertex 31.2558 20 29.9605
    endloop
  endfacet
  facet normal 0 1 0
    outer loop
      vertex 60 20 40
      vertex 33.7476 20 29.6457
      vertex 32.5067 20 29.8423
    endloop
  endfacet
  facet normal 0 1 0
    outer loop
      vertex 60 20 40
      vertex 34.9738 20 29.3717
      vertex 33.7476 20 29.6457
    endloop
  endfacet
  facet normal 0 1 0
    outer loop
      vertex 60 20 40
      vertex 36.1803 20 29.0211
      vertex 34.9738 20 29.3717
    endloop
  endfacet
  facet normal 0 1 0
    outer loop
      vertex 60 20 40
      vertex 37.3625 20 28.5955
      vertex 36.1803 20 29.0211
    endloop
  endfacet
  facet normal 0 1 0
    outer loop
      vertex 60 20 40
      vertex 38.5156 20 28.0965
      vertex 37.3625 20 28.5955
    endloop
  endfacet
  facet normal 0 1 0
    outer loop
      vertex 60 20 40
      vertex 39.6351 20 27.5261
      vertex 38.5156 20 28.0965
    endloop
  endfacet
  facet normal 0 1 0
    outer loop
      vertex 60 20 40
      vertex 40.7165 20 26.8866
      vertex 39.6351 20 27.5261
    endloop
  endfacet
  facet normal 0 1 0
    outer loop
      vertex 60 20 40
      vertex 41.7557 20 26.1803
      vertex 40.7165 20 26.8866
    endloop
  endfacet
  facet normal 0 1 0
    outer loop
      vertex 60 20 40
      vertex 42.7485 20 25.4103
      vertex 41.7557 20 26.1803
    endloop
  endfacet
  facet normal 0 1 0
    outer loop
      vertex 60 20 40
      vertex 43.6909 20 24.5794
      vertex 42.7485 20 25.4103
    endloop
  endfacet
  facet normal 0 1 0
    outer loop
      vertex 60 20 40
      vertex 44.5794 20 23.6909
      vertex 43.6909 20 24.5794
    endloop
  endfacet
  facet normal 0 1 0
    outer loop
      vertex 60 20 40
      vertex 45.4103 20 22.7485
      vertex 44.5794 20 23.6909
    endloop
  endfacet
  facet normal 0 1 0
    outer loop
      vertex 60 20 40
      vertex 46.1803 20 21.7557
      vertex 45.4103 20 22.7485
    endloop
  endfacet
  facet normal 0 1 0
    outer loop
      vertex 60 20 40
      vertex 46.8866 20 20.7165
      vertex 46.1803 20 21.7557
    endloop
  endfacet
  facet normal 0 1 0
    outer loop
      vertex 60 20 40
      vertex 47.5261 20 19.6351
      vertex 46.8866 20 20.7165
    endloop
  endfacet
  facet normal 0 1 0
    outer loop
      vertex 60 20 40
      vertex 48.0965 20 18.5156
      vertex 47.5261 20 19.6351
    endloop
  endfacet
  facet normal 0 1 0
    outer loop
      vertex 60 20 40
      vertex 48.5955 20 17.3625
      vertex 48.0965 20 18.5156
    endloop
  endfacet
  facet normal 0 1 0
    outer loop
      vertex 60 20 40
      vertex 49.0211 20 16.1803
      vertex 48.5955 20 17.3625
    endloop
  endfacet
  facet normal 0 1 0
    outer loop
      vertex 60 20 40
      vertex 49.3717 20 14.9738
      vertex 49.0211 20 16.1803
    endloop
  endfacet
  facet normal 0 1 -0
    outer loop
      vertex 60 20 0
      vertex 49.3717 20 14.9738
      vertex 60 20 40
    endloop
  endfacet
  facet normal 0 1 0
    outer loop
      vertex 49.3717 20 14.9738
      vertex 60 20 0
      vertex 49.6457 20 13.7476
    endloop
  endfacet
  facet normal 0 1 0
    outer loop
      vertex 49.6457 20 13.7476
      vertex 60 20 0
      vertex 49.8423 20 12.5067
    endloop
  endfacet
  facet normal 0 1 0
    outer loop
      vertex 49.8423 20 12.5067
      vertex 60 20 0
      vertex 49.9605 20 11.2558
    endloop
  endfacet
  facet normal 0 1 0
    outer loop
      vertex 49.9605 20 11.2558
      vertex 60 20 0
      vertex 50 20 10
    endloop
  endfacet
  facet normal 0 1 0
    outer loop
      vertex 50 20 10
      vertex 60 20 0
      vertex 50 20 0
    endloop
  endfacet
  facet normal 0 1 -0
    outer loop
      vertex 28.7442 20 29.9605
      vertex 0 20 40
      vertex 30 20 30
    endloop
  endfacet
  facet normal 0 1 -0
    outer loop
      vertex 27.4933 20 29.8423
      vertex 0 20 40
      vertex 28.7442 20 29.9605
    endloop
  endfacet
  facet normal 0 1 -0
    outer loop
      vertex 26.2524 20 29.6457
      vertex 0 20 40
      vertex 27.4933 20 29.8423
    endloop
  endfacet
  facet normal 0 1 -0
    outer loop
      vertex 25.0262 20 29.3717
      vertex 0 20 40
      vertex 26.2524 20 29.6457
    endloop
  endfacet
  facet normal 0 1 -0
    outer loop
      vertex 23.8197 20 29.0211
      vertex 0 20 40
      vertex 25.0262 20 29.3717
    endloop
  endfacet
  facet normal 0 1 -0
    outer loop
      vertex 22.6375 20 28.5955
      vertex 0 20 40
      vertex 23.8197 20 29.0211
    endloop
  endfacet
  facet normal 0 1 -0
    outer loop
      vertex 21.4844 20 28.0965
      vertex 0 20 40
      vertex 22.6375 20 28.5955
    endloop
  endfacet
  facet normal 0 1 -0
    outer loop
      vertex 20.3649 20 27.5261
      vertex 0 20 40
      vertex 21.4844 20 28.0965
    endloop
  endfacet
  facet normal 0 1 -0
    outer loop
      vertex 19.2835 20 26.8866
      vertex 0 20 40
      vertex 20.3649 20 27.5261
    endloop
  endfacet
  facet normal 0 1 -0
    outer loop
      vertex 18.2443 20 26.1803
      vertex 0 20 40
      vertex 19.2835 20 26.8866
    endloop
  endfacet
  facet normal 0 1 -0
    outer loop
      vertex 17.2515 20 25.4103
      vertex 0 20 40
      vertex 18.2443 20 26.1803
    endloop
  endfacet
  facet normal 0 1 -0
    outer loop
      vertex 16.3091 20 24.5794
      vertex 0 20 40
      vertex 17.2515 20 25.4103
    endloop
  endfacet
  facet normal 0 1 -0
    outer loop
      vertex 15.4206 20 23.6909
      vertex 0 20 40
      vertex 16.3091 20 24.5794
    endloop
  endfacet
  facet normal 0 1 -0
    outer loop
      vertex 14.5897 20 22.7485
      vertex 0 20 40
      vertex 15.4206 20 23.6909
    endloop
  endfacet
  facet normal 0 1 -0
    outer loop
      vertex 13.8197 20 21.7557
      vertex 0 20 40
      vertex 14.5897 20 22.7485
    endloop
  endfacet
  facet normal 0 1 -0
    outer loop
      vertex 13.1134 20 20.7165
      vertex 0 20 40
      vertex 13.8197 20 21.7557
    endloop
  endfacet
  facet normal 0 1 -0
    outer loop
      vertex 12.4739 20 19.6351
      vertex 0 20 40
      vertex 13.1134 20 20.7165
    endloop
  endfacet
  facet normal 0 1 -0
    outer loop
      vertex 11.9035 20 18.5156
      vertex 0 20 40
      vertex 12.4739 20 19.6351
    endloop
  endfacet
  facet normal 0 1 -0
    outer loop
      vertex 11.4045 20 17.3625
      vertex 0 20 40
      vertex 11.9035 20 18.5156
    endloop
  endfacet
  facet normal 0 1 -0
    outer loop
      vertex 10.9789 20 16.1803
      vertex 0 20 40
      vertex 11.4045 20 17.3625
    endloop
  endfacet
  facet normal 0 1 -0
    outer loop
      vertex 10.6283 20 14.9738
      vertex 0 20 40
      vertex 10.9789 20 16.1803
    endloop
  endfacet
  facet normal 0 1 0
    outer loop
      vertex 0 20 0
      vertex 10.6283 20 14.9738
      vertex 10.3543 20 13.7476
    endloop
  endfacet
  facet normal 0 1 0
    outer loop
      vertex 0 20 0
      vertex 10.3543 20 13.7476
      vertex 10.1577 20 12.5067
    endloop
  endfacet
  facet normal 0 1 0
    outer loop
      vertex 0 20 0
      vertex 10.1577 20 12.5067
      vertex 10.0395 20 11.2558
    endloop
  endfacet
  facet normal 0 1 0
    outer loop
      vertex 0 20 0
      vertex 10.0395 20 11.2558
      vertex 10 20 10
    endloop
  endfacet
  facet normal 0 1 0
    outer loop
      vertex 0 20 0
      vertex 10 20 10
      vertex 10 20 0
    endloop
  endfacet
  facet normal 0 1 0
    outer loop
      vertex 10.6283 20 14.9738
      vertex 0 20 0
      vertex 0 20 40
    endloop
  endfacet
  facet normal 1 -0 0
    outer loop
      vertex 10 0 10
      vertex 10 20 0
      vertex 10 20 10
    endloop
  endfacet
  facet normal 1 0 0
    outer loop
      vertex 10 20 0
      vertex 10 0 10
      vertex 10 0 0
    endloop
  endfacet
  facet normal -1 0 0
    outer loop
      vertex 50 0 0
      vertex 50 20 10
      vertex 50 20 0
    endloop
  endfacet
  facet normal -1 -0 0
    outer loop
      vertex 50 20 10
      vertex 50 0 0
      vertex 50 0 10
    endloop
  endfacet
  facet normal -0.999507 0 -0.0314119
    outer loop
      vertex 50 0 10
      vertex 49.9605 20 11.2558
      vertex 50 20 10
    endloop
  endfacet
  facet normal -0.999507 -0 -0.0314119
    outer loop
      vertex 49.9605 20 11.2558
      vertex 50 0 10
      vertex 49.9605 0 11.2558
    endloop
  endfacet
  facet normal -0.995562 0 -0.0941082
    outer loop
      vertex 49.9605 0 11.2558
      vertex 49.8423 20 12.5067
      vertex 49.9605 20 11.2558
    endloop
  endfacet
  facet normal -0.995562 -0 -0.0941082
    outer loop
      vertex 49.8423 20 12.5067
      vertex 49.9605 0 11.2558
      vertex 49.8423 0 12.5067
    endloop
  endfacet
  facet normal 0.0314119 0 -0.999507
    outer loop
      vertex 28.7442 0 29.9605
      vertex 30 20 30
      vertex 30 0 30
    endloop
  endfacet
  facet normal 0.0314119 0 -0.999507
    outer loop
      vertex 30 20 30
      vertex 28.7442 0 29.9605
      vertex 28.7442 20 29.9605
    endloop
  endfacet
  facet normal 0.0941082 0 -0.995562
    outer loop
      vertex 27.4933 0 29.8423
      vertex 28.7442 20 29.9605
      vertex 28.7442 0 29.9605
    endloop
  endfacet
  facet normal 0.0941082 0 -0.995562
    outer loop
      vertex 28.7442 20 29.9605
      vertex 27.4933 0 29.8423
      vertex 27.4933 20 29.8423
    endloop
  endfacet
  facet normal -0.707107 0 -0.707107
    outer loop
      vertex 44.5794 0 23.6909
      vertex 43.6909 20 24.5794
      vertex 44.5794 20 23.6909
    endloop
  endfacet
  facet normal -0.707107 -0 -0.707107
    outer loop
      vertex 43.6909 20 24.5794
      vertex 44.5794 0 23.6909
      vertex 43.6909 0 24.5794
    endloop
  endfacet
  facet normal -0.790154 0 -0.612909
    outer loop
      vertex 46.1803 0 21.7557
      vertex 45.4103 20 22.7485
      vertex 46.1803 20 21.7557
    endloop
  endfacet
  facet normal -0.790154 -0 -0.612909
    outer loop
      vertex 45.4103 20 22.7485
      vertex 46.1803 0 21.7557
      vertex 45.4103 0 22.7485
    endloop
  endfacet
  facet normal 0.707107 0 -0.707106
    outer loop
      vertex 16.3091 0 24.5794
      vertex 15.4206 20 23.6909
      vertex 16.3091 20 24.5794
    endloop
  endfacet
  facet normal 0.707107 0 -0.707106
    outer loop
      vertex 15.4206 20 23.6909
      vertex 16.3091 0 24.5794
      vertex 15.4206 0 23.6909
    endloop
  endfacet
  facet normal -0.612909 0 -0.790153
    outer loop
      vertex 41.7557 0 26.1803
      vertex 42.7485 20 25.4103
      vertex 42.7485 0 25.4103
    endloop
  endfacet
  facet normal -0.612909 0 -0.790153
    outer loop
      vertex 42.7485 20 25.4103
      vertex 41.7557 0 26.1803
      vertex 41.7557 20 26.1803
    endloop
  endfacet
  facet normal -0.917755 0 -0.397146
    outer loop
      vertex 48.5955 0 17.3625
      vertex 48.0965 20 18.5156
      vertex 48.5955 20 17.3625
    endloop
  endfacet
  facet normal -0.917755 -0 -0.397146
    outer loop
      vertex 48.0965 20 18.5156
      vertex 48.5955 0 17.3625
      vertex 48.0965 0 18.5156
    endloop
  endfacet
  facet normal 0.45399 0 -0.891007
    outer loop
      vertex 20.3649 0 27.5261
      vertex 21.4844 20 28.0965
      vertex 21.4844 0 28.0965
    endloop
  endfacet
  facet normal 0.45399 0 -0.891007
    outer loop
      vertex 21.4844 20 28.0965
      vertex 20.3649 0 27.5261
      vertex 20.3649 20 27.5261
    endloop
  endfacet
  facet normal -0.891006 0 -0.453991
    outer loop
      vertex 48.0965 0 18.5156
      vertex 47.5261 20 19.6351
      vertex 48.0965 20 18.5156
    endloop
  endfacet
  facet normal -0.891006 -0 -0.453991
    outer loop
      vertex 47.5261 20 19.6351
      vertex 48.0965 0 18.5156
      vertex 47.5261 0 19.6351
    endloop
  endfacet
  facet normal -0.218144 0 -0.975917
    outer loop
      vertex 33.7476 0 29.6457
      vertex 34.9738 20 29.3717
      vertex 34.9738 0 29.3717
    endloop
  endfacet
  facet normal -0.218144 0 -0.975917
    outer loop
      vertex 34.9738 20 29.3717
      vertex 33.7476 0 29.6457
      vertex 33.7476 20 29.6457
    endloop
  endfacet
  facet normal -0.562083 0 -0.827081
    outer loop
      vertex 40.7165 0 26.8866
      vertex 41.7557 20 26.1803
      vertex 41.7557 0 26.1803
    endloop
  endfacet
  facet normal -0.562083 0 -0.827081
    outer loop
      vertex 41.7557 20 26.1803
      vertex 40.7165 0 26.8866
      vertex 40.7165 20 26.8866
    endloop
  endfacet
  facet normal 0.960294 0 -0.278991
    outer loop
      vertex 10.9789 0 16.1803
      vertex 10.6283 20 14.9738
      vertex 10.9789 20 16.1803
    endloop
  endfacet
  facet normal 0.960294 0 -0.278991
    outer loop
      vertex 10.6283 20 14.9738
      vertex 10.9789 0 16.1803
      vertex 10.6283 0 14.9738
    endloop
  endfacet
  facet normal 0.827081 0 -0.562083
    outer loop
      vertex 13.8197 0 21.7557
      vertex 13.1134 20 20.7165
      vertex 13.8197 20 21.7557
    endloop
  endfacet
  facet normal 0.827081 0 -0.562083
    outer loop
      vertex 13.1134 20 20.7165
      vertex 13.8197 0 21.7557
      vertex 13.1134 0 20.7165
    endloop
  endfacet
  facet normal -0.975917 0 -0.218144
    outer loop
      vertex 49.6457 0 13.7476
      vertex 49.3717 20 14.9738
      vertex 49.6457 20 13.7476
    endloop
  endfacet
  facet normal -0.975917 -0 -0.218144
    outer loop
      vertex 49.3717 20 14.9738
      vertex 49.6457 0 13.7476
      vertex 49.3717 0 14.9738
    endloop
  endfacet
  facet normal -0.860742 0 -0.509042
    outer loop
      vertex 47.5261 0 19.6351
      vertex 46.8866 20 20.7165
      vertex 47.5261 20 19.6351
    endloop
  endfacet
  facet normal -0.860742 -0 -0.509042
    outer loop
      vertex 46.8866 20 20.7165
      vertex 47.5261 0 19.6351
      vertex 46.8866 0 20.7165
    endloop
  endfacet
  facet normal -0.94088 0 -0.338739
    outer loop
      vertex 49.0211 0 16.1803
      vertex 48.5955 20 17.3625
      vertex 49.0211 20 16.1803
    endloop
  endfacet
  facet normal -0.94088 -0 -0.338739
    outer loop
      vertex 48.5955 20 17.3625
      vertex 49.0211 0 16.1803
      vertex 48.5955 0 17.3625
    endloop
  endfacet
  facet normal -0.960294 0 -0.278991
    outer loop
      vertex 49.3717 0 14.9738
      vertex 49.0211 20 16.1803
      vertex 49.3717 20 14.9738
    endloop
  endfacet
  facet normal -0.960294 -0 -0.278991
    outer loop
      vertex 49.0211 20 16.1803
      vertex 49.3717 0 14.9738
      vertex 49.0211 0 16.1803
    endloop
  endfacet
  facet normal -0.750112 0 -0.661311
    outer loop
      vertex 45.4103 0 22.7485
      vertex 44.5794 20 23.6909
      vertex 45.4103 20 22.7485
    endloop
  endfacet
  facet normal -0.750112 -0 -0.661311
    outer loop
      vertex 44.5794 20 23.6909
      vertex 45.4103 0 22.7485
      vertex 44.5794 0 23.6909
    endloop
  endfacet
  facet normal -0.827081 0 -0.562083
    outer loop
      vertex 46.8866 0 20.7165
      vertex 46.1803 20 21.7557
      vertex 46.8866 20 20.7165
    endloop
  endfacet
  facet normal -0.827081 -0 -0.562083
    outer loop
      vertex 46.1803 20 21.7557
      vertex 46.8866 0 20.7165
      vertex 46.1803 0 21.7557
    endloop
  endfacet
  facet normal -0.156434 0 -0.987688
    outer loop
      vertex 32.5067 0 29.8423
      vertex 33.7476 20 29.6457
      vertex 33.7476 0 29.6457
    endloop
  endfacet
  facet normal -0.156434 0 -0.987688
    outer loop
      vertex 33.7476 20 29.6457
      vertex 32.5067 0 29.8423
      vertex 32.5067 20 29.8423
    endloop
  endfacet
  facet normal -0.397148 0 -0.917755
    outer loop
      vertex 37.3625 0 28.5955
      vertex 38.5156 20 28.0965
      vertex 38.5156 0 28.0965
    endloop
  endfacet
  facet normal -0.397148 0 -0.917755
    outer loop
      vertex 38.5156 20 28.0965
      vertex 37.3625 0 28.5955
      vertex 37.3625 20 28.5955
    endloop
  endfacet
  facet normal 0.995562 0 -0.0941082
    outer loop
      vertex 10.1577 0 12.5067
      vertex 10.0395 20 11.2558
      vertex 10.1577 20 12.5067
    endloop
  endfacet
  facet normal 0.995562 0 -0.0941082
    outer loop
      vertex 10.0395 20 11.2558
      vertex 10.1577 0 12.5067
      vertex 10.0395 0 11.2558
    endloop
  endfacet
  facet normal 0.397148 0 -0.917755
    outer loop
      vertex 21.4844 0 28.0965
      vertex 22.6375 20 28.5955
      vertex 22.6375 0 28.5955
    endloop
  endfacet
  facet normal 0.397148 0 -0.917755
    outer loop
      vertex 22.6375 20 28.5955
      vertex 21.4844 0 28.0965
      vertex 21.4844 20 28.0965
    endloop
  endfacet
  facet normal 0.278991 0 -0.960294
    outer loop
      vertex 23.8197 0 29.0211
      vertex 25.0262 20 29.3717
      vertex 25.0262 0 29.3717
    endloop
  endfacet
  facet normal 0.278991 0 -0.960294
    outer loop
      vertex 25.0262 20 29.3717
      vertex 23.8197 0 29.0211
      vertex 23.8197 20 29.0211
    endloop
  endfacet
  facet normal 0.987688 0 -0.156435
    outer loop
      vertex 10.3543 0 13.7476
      vertex 10.1577 20 12.5067
      vertex 10.3543 20 13.7476
    endloop
  endfacet
  facet normal 0.987688 0 -0.156435
    outer loop
      vertex 10.1577 20 12.5067
      vertex 10.3543 0 13.7476
      vertex 10.1577 0 12.5067
    endloop
  endfacet
  facet normal 0.975917 0 -0.218143
    outer loop
      vertex 10.6283 0 14.9738
      vertex 10.3543 20 13.7476
      vertex 10.6283 20 14.9738
    endloop
  endfacet
  facet normal 0.975917 0 -0.218143
    outer loop
      vertex 10.3543 20 13.7476
      vertex 10.6283 0 14.9738
      vertex 10.3543 0 13.7476
    endloop
  endfacet
  facet normal 0.917754 0 -0.397149
    outer loop
      vertex 11.9035 0 18.5156
      vertex 11.4045 20 17.3625
      vertex 11.9035 20 18.5156
    endloop
  endfacet
  facet normal 0.917754 0 -0.397149
    outer loop
      vertex 11.4045 20 17.3625
      vertex 11.9035 0 18.5156
      vertex 11.4045 0 17.3625
    endloop
  endfacet
  facet normal 0.860742 0 -0.509042
    outer loop
      vertex 13.1134 0 20.7165
      vertex 12.4739 20 19.6351
      vertex 13.1134 20 20.7165
    endloop
  endfacet
  facet normal 0.860742 0 -0.509042
    outer loop
      vertex 12.4739 20 19.6351
      vertex 13.1134 0 20.7165
      vertex 12.4739 0 19.6351
    endloop
  endfacet
  facet normal 0.790154 0 -0.612908
    outer loop
      vertex 14.5897 0 22.7485
      vertex 13.8197 20 21.7557
      vertex 14.5897 20 22.7485
    endloop
  endfacet
  facet normal 0.790154 0 -0.612908
    outer loop
      vertex 13.8197 20 21.7557
      vertex 14.5897 0 22.7485
      vertex 13.8197 0 21.7557
    endloop
  endfacet
  facet normal -0.987688 0 -0.156434
    outer loop
      vertex 49.8423 0 12.5067
      vertex 49.6457 20 13.7476
      vertex 49.8423 20 12.5067
    endloop
  endfacet
  facet normal -0.987688 -0 -0.156434
    outer loop
      vertex 49.6457 20 13.7476
      vertex 49.8423 0 12.5067
      vertex 49.6457 0 13.7476
    endloop
  endfacet
  facet normal -0.50904 0 -0.860743
    outer loop
      vertex 39.6351 0 27.5261
      vertex 40.7165 20 26.8866
      vertex 40.7165 0 26.8866
    endloop
  endfacet
  facet normal -0.50904 0 -0.860743
    outer loop
      vertex 40.7165 20 26.8866
      vertex 39.6351 0 27.5261
      vertex 39.6351 20 27.5261
    endloop
  endfacet
  facet normal -0.0314119 0 -0.999507
    outer loop
      vertex 30 0 30
      vertex 31.2558 20 29.9605
      vertex 31.2558 0 29.9605
    endloop
  endfacet
  facet normal -0.0314119 0 -0.999507
    outer loop
      vertex 31.2558 20 29.9605
      vertex 30 0 30
      vertex 30 20 30
    endloop
  endfacet
  facet normal -0.278991 0 -0.960294
    outer loop
      vertex 34.9738 0 29.3717
      vertex 36.1803 20 29.0211
      vertex 36.1803 0 29.0211
    endloop
  endfacet
  facet normal -0.278991 0 -0.960294
    outer loop
      vertex 36.1803 20 29.0211
      vertex 34.9738 0 29.3717
      vertex 34.9738 20 29.3717
    endloop
  endfacet
  facet normal 0.218144 0 -0.975917
    outer loop
      vertex 25.0262 0 29.3717
      vertex 26.2524 20 29.6457
      vertex 26.2524 0 29.6457
    endloop
  endfacet
  facet normal 0.218144 0 -0.975917
    outer loop
      vertex 26.2524 20 29.6457
      vertex 25.0262 0 29.3717
      vertex 25.0262 20 29.3717
    endloop
  endfacet
  facet normal 0.338737 0 -0.940881
    outer loop
      vertex 22.6375 0 28.5955
      vertex 23.8197 20 29.0211
      vertex 23.8197 0 29.0211
    endloop
  endfacet
  facet normal 0.338737 0 -0.940881
    outer loop
      vertex 23.8197 20 29.0211
      vertex 22.6375 0 28.5955
      vertex 22.6375 20 28.5955
    endloop
  endfacet
  facet normal 0.940881 0 -0.338737
    outer loop
      vertex 11.4045 0 17.3625
      vertex 10.9789 20 16.1803
      vertex 11.4045 20 17.3625
    endloop
  endfacet
  facet normal 0.940881 0 -0.338737
    outer loop
      vertex 10.9789 20 16.1803
      vertex 11.4045 0 17.3625
      vertex 10.9789 0 16.1803
    endloop
  endfacet
  facet normal 0.999507 0 -0.0314104
    outer loop
      vertex 10.0395 0 11.2558
      vertex 10 20 10
      vertex 10.0395 20 11.2558
    endloop
  endfacet
  facet normal 0.999507 0 -0.0314104
    outer loop
      vertex 10 20 10
      vertex 10.0395 0 11.2558
      vertex 10 0 10
    endloop
  endfacet
  facet normal 0.891007 0 -0.45399
    outer loop
      vertex 12.4739 0 19.6351
      vertex 11.9035 20 18.5156
      vertex 12.4739 20 19.6351
    endloop
  endfacet
  facet normal 0.891007 0 -0.45399
    outer loop
      vertex 11.9035 20 18.5156
      vertex 12.4739 0 19.6351
      vertex 11.9035 0 18.5156
    endloop
  endfacet
  facet normal 0.750112 0 -0.661311
    outer loop
      vertex 15.4206 0 23.6909
      vertex 14.5897 20 22.7485
      vertex 15.4206 20 23.6909
    endloop
  endfacet
  facet normal 0.750112 0 -0.661311
    outer loop
      vertex 14.5897 20 22.7485
      vertex 15.4206 0 23.6909
      vertex 14.5897 0 22.7485
    endloop
  endfacet
  facet normal -0.453991 0 -0.891006
    outer loop
      vertex 38.5156 0 28.0965
      vertex 39.6351 20 27.5261
      vertex 39.6351 0 27.5261
    endloop
  endfacet
  facet normal -0.453991 0 -0.891006
    outer loop
      vertex 39.6351 20 27.5261
      vertex 38.5156 0 28.0965
      vertex 38.5156 20 28.0965
    endloop
  endfacet
  facet normal -0.0941082 0 -0.995562
    outer loop
      vertex 31.2558 0 29.9605
      vertex 32.5067 20 29.8423
      vertex 32.5067 0 29.8423
    endloop
  endfacet
  facet normal -0.0941082 0 -0.995562
    outer loop
      vertex 32.5067 20 29.8423
      vertex 31.2558 0 29.9605
      vertex 31.2558 20 29.9605
    endloop
  endfacet
  facet normal -0.661311 0 -0.750112
    outer loop
      vertex 42.7485 0 25.4103
      vertex 43.6909 20 24.5794
      vertex 43.6909 0 24.5794
    endloop
  endfacet
  facet normal -0.661311 0 -0.750112
    outer loop
      vertex 43.6909 20 24.5794
      vertex 42.7485 0 25.4103
      vertex 42.7485 20 25.4103
    endloop
  endfacet
  facet normal -0.338737 0 -0.940881
    outer loop
      vertex 36.1803 0 29.0211
      vertex 37.3625 20 28.5955
      vertex 37.3625 0 28.5955
    endloop
  endfacet
  facet normal -0.338737 0 -0.940881
    outer loop
      vertex 37.3625 20 28.5955
      vertex 36.1803 0 29.0211
      vertex 36.1803 20 29.0211
    endloop
  endfacet
  facet normal 0.156434 0 -0.987688
    outer loop
      vertex 26.2524 0 29.6457
      vertex 27.4933 20 29.8423
      vertex 27.4933 0 29.8423
    endloop
  endfacet
  facet normal 0.156434 0 -0.987688
    outer loop
      vertex 27.4933 20 29.8423
      vertex 26.2524 0 29.6457
      vertex 26.2524 20 29.6457
    endloop
  endfacet
  facet normal 0.562083 0 -0.827081
    outer loop
      vertex 18.2443 0 26.1803
      vertex 19.2835 20 26.8866
      vertex 19.2835 0 26.8866
    endloop
  endfacet
  facet normal 0.562083 0 -0.827081
    outer loop
      vertex 19.2835 20 26.8866
      vertex 18.2443 0 26.1803
      vertex 18.2443 20 26.1803
    endloop
  endfacet
  facet normal 0.509042 0 -0.860742
    outer loop
      vertex 19.2835 0 26.8866
      vertex 20.3649 20 27.5261
      vertex 20.3649 0 27.5261
    endloop
  endfacet
  facet normal 0.509042 0 -0.860742
    outer loop
      vertex 20.3649 20 27.5261
      vertex 19.2835 0 26.8866
      vertex 19.2835 20 26.8866
    endloop
  endfacet
  facet normal 0.612909 0 -0.790154
    outer loop
      vertex 17.2515 0 25.4103
      vertex 18.2443 20 26.1803
      vertex 18.2443 0 26.1803
    endloop
  endfacet
  facet normal 0.612909 0 -0.790154
    outer loop
      vertex 18.2443 20 26.1803
      vertex 17.2515 0 25.4103
      vertex 17.2515 20 25.4103
    endloop
  endfacet
  facet normal 0.661311 0 -0.750112
    outer loop
      vertex 16.3091 0 24.5794
      vertex 17.2515 20 25.4103
      vertex 17.2515 0 25.4103
    endloop
  endfacet
  facet normal 0.661311 0 -0.750112
    outer loop
      vertex 17.2515 20 25.4103
      vertex 16.3091 0 24.5794
      vertex 16.3091 20 24.5794
    endloop
  endfacet
endsolid OpenSCAD_Model
